<svg width="1024" height="1024" viewBox="0 0 1024 1024" fill="none" xmlns="http://www.w3.org/2000/svg">
  <g transform="translate(512 512) rotate(-8) translate(-512 -512)">
    <path
      d="M512 168C372 168 258 278 258 412C258 468 276 520 306 562L306 760C306 792 334 818 366 818C382 818 396 812 408 802C420 812 434 818 450 818C466 818 480 812 492 802C504 812 518 818 534 818C566 818 594 792 594 760L594 562C624 520 642 468 642 412C642 278 528 168 388 168H512Z"
      fill="#000000"
    />
    <ellipse cx="438" cy="392" rx="46" ry="52" fill="#FFFFFF" />
    <ellipse cx="572" cy="408" rx="52" ry="58" fill="#FFFFFF" />
    <path
      d="M468 498C468 498 498 548 548 548C598 548 628 498 628 498C628 498 598 568 548 568C498 568 468 498 468 498Z"
      fill="#FFFFFF"
    />
  </g>
</svg>
